<?xml version="1.0" encoding="UTF-8" standalone="no"?>
<!-- Created with Inkscape (http://www.inkscape.org/) -->

<svg
   width="211.51907mm"
   height="211.66676mm"
   viewBox="0 0 211.51907 211.66676"
   version="1.1"
   id="svg5"
   xml:space="preserve"
   xmlns="http://www.w3.org/2000/svg"
   xmlns:svg="http://www.w3.org/2000/svg"><defs
     id="defs2" /><g
     id="layer1"
     transform="translate(-239.99045,-17.448732)"><g
       id="g199"
       transform="matrix(0.42006272,0,0,0.42006272,239.91679,17.448837)"><g
         transform="translate(9,9)"
         id="g185">
	<path
   style="fill:#80d6fa"
   d="m 294.185,440.28 c 7.68,-7.68 0,-22.187 -7.68,-29.013 -7.68,-7.68 -32.427,18.773 -22.187,29.013 7.68,7.68 22.187,7.68 29.867,0 m 107.52,-104.107 c 7.68,-22.187 36.693,-29.867 22.187,-44.373 -14.506,-14.506 -44.373,0 -51.2,0 -16.213,0 -22.187,29.013 -36.693,22.187 -14.507,-7.68 -29.013,7.68 -14.507,14.507 14.507,7.68 29.013,14.507 36.693,22.187 6.827,7.679 36.693,7.679 43.52,-14.508 M 170.452,98.093 c -0.853,-0.853 -1.707,-2.56 -2.56,-4.267 v 0 c 11.947,-7.68 26.453,-13.653 26.453,-13.653 25.6,-11.093 53.76,-17.067 82.773,-17.067 17.92,0 35.84,2.56 52.053,6.827 -4.267,20.48 10.24,29.013 10.24,36.693 0,7.68 0,44.373 -14.507,44.373 -14.507,0 -51.2,22.187 -36.693,44.373 14.507,22.187 22.187,51.2 36.693,44.373 14.507,-7.68 26.453,-52.053 36.693,-51.2 25.6,0.853 25.6,38.4 40.96,45.227 10.24,5.12 53.76,0 81.067,-11.947 l 5.12,26.453 c 1.707,9.387 1.707,19.627 1.707,29.867 0,117.76 -95.573,213.333 -213.333,213.333 -28.16,-17.92 -68.267,-46.08 -51.2,-84.48 22.187,-51.2 0,-66.56 -7.68,-73.387 -7.68,-7.68 -22.187,-7.68 -14.507,-29.867 7.68,-22.187 22.187,-14.507 22.187,-51.2 0,-36.693 -58.88,-29.013 -51.2,-7.68 7.68,22.187 -7.68,51.2 -36.693,73.387 -29.013,22.187 -36.693,-36.693 -22.187,-51.2 10.24,-10.24 -22.187,-15.36 -49.493,-13.653 v -1.707 l 4.267,-25.6 c 2.56,-11.947 6.827,-23.04 11.093,-34.133 0,0 9.387,-17.92 12.8,-23.893 v 0 c 0.853,0.853 1.707,1.707 2.56,2.56 1.707,1.707 3.413,2.56 5.12,3.413 8.533,5.12 17.92,9.387 29.013,9.387 28.16,0 51.2,-23.04 51.2,-51.2 0,-10.24 -3.413,-20.48 -9.387,-28.16 0,-2.558 -0.853,-4.265 -2.559,-5.972"
   id="path179" />
	<path
   style="fill:#50dd8e"
   d="m 277.118,490.627 c -24.747,0 -51.2,-5.973 -51.2,-5.973 -93.013,-23.04 -162.133,-106.667 -162.133,-207.36 0,-8.533 0,-16.213 1.707,-24.747 v 0 c 27.307,-0.853 59.733,4.267 49.493,13.653 -14.507,14.507 -7.68,73.387 22.187,51.2 29.867,-22.187 44.373,-51.2 36.693,-73.387 -7.68,-22.187 51.2,-29.013 51.2,7.68 0,36.693 -14.507,29.013 -22.187,51.2 -7.68,22.187 7.68,22.187 14.507,29.867 7.68,7.68 29.013,22.187 7.68,73.387 -16.213,38.4 23.893,66.56 52.053,84.48 z m 9.387,-79.36 c 7.68,7.68 14.507,22.187 7.68,29.013 -7.68,7.68 -22.187,7.68 -29.013,0 -11.094,-10.24 14.506,-36.693 21.333,-29.013 z m 42.667,-340.48 c 10.24,2.56 28.16,9.387 28.16,9.387 60.587,24.747 107.52,76.8 125.44,141.653 -27.307,11.947 -70.827,17.067 -81.067,11.947 -14.507,-7.68 -14.507,-44.373 -40.96,-45.227 -10.24,-0.853 -22.187,44.373 -36.693,51.2 -14.507,7.68 -22.187,-22.187 -36.693,-44.373 C 272.852,173.187 309.545,151 324.052,151 c 14.507,0 14.507,-36.693 14.507,-44.373 0.853,-6.827 -13.654,-15.36 -9.387,-35.84 z m 94.72,221.013 c 14.507,14.507 -14.507,22.187 -22.187,44.373 -7.68,22.187 -36.693,22.187 -44.373,14.507 -7.68,-7.68 -22.187,-14.507 -36.693,-22.187 -14.507,-7.68 0,-22.187 14.507,-14.507 14.507,7.68 20.48,-22.187 36.693,-22.187 8.533,0.001 37.546,-14.506 52.053,0.001 z"
   id="path181" />
	<path
   style="fill:#ae938d"
   d="m 173.865,104.067 c 5.12,8.533 9.387,17.92 9.387,28.16 0,28.16 -23.04,51.2 -51.2,51.2 -11.093,0 -20.48,-4.267 -29.013,-9.387 -5.12,-16.213 -5.12,-41.813 -5.12,-41.813 0,-18.773 15.36,-34.133 34.133,-34.133 0,0 30.72,0 40.96,6.827 z"
   id="path183" />
</g><path
         style="fill:#51565f"
         d="m 286.118,503.893 c -0.853,0 -1.707,0 -2.56,-0.853 -21.333,-13.653 -72.533,-45.227 -52.907,-89.6 19.627,-45.227 3.413,-58.88 -4.267,-66.56 -0.853,-0.853 -1.707,-1.707 -1.707,-1.707 -1.707,-1.707 -3.413,-2.56 -5.973,-4.267 -6.827,-4.267 -17.067,-10.24 -10.24,-29.867 3.413,-9.387 7.68,-13.653 11.093,-17.92 5.973,-5.973 10.24,-11.093 10.24,-31.573 0,-11.093 -6.827,-16.213 -11.947,-18.773 -10.24,-4.267 -23.893,-2.56 -29.013,2.56 -3.413,2.56 -2.56,5.973 -2.56,7.68 7.68,23.893 -7.68,55.467 -38.4,78.507 -14.507,11.093 -23.893,3.413 -27.307,-0.853 -11.093,-13.653 -11.947,-46.08 0,-57.173 0.853,-0.853 0.853,-0.853 0.853,-0.853 -1.707,-2.56 -19.627,-6.827 -43.52,-5.973 -0.853,6.827 -0.853,13.653 -0.853,20.48 0,96.427 64.853,180.053 158.72,203.093 2.56,0.853 3.413,2.56 3.413,5.12 -0.853,2.56 -2.56,3.413 -5.12,3.413 C 136.783,474.881 68.516,387.841 68.516,287.147 c 0,-9.387 0.853,-17.067 1.707,-25.6 v -0.853 c 0,-0.853 0.853,-0.853 0.853,-1.707 0.853,-0.853 0.853,-0.853 1.707,-0.853 h 0.853 c 2.56,0 49.493,-1.707 55.467,11.093 0.853,1.707 1.707,5.973 -2.56,9.387 -8.533,8.533 -7.68,35.84 0.853,46.08 2.56,2.56 6.827,5.973 16.213,-0.853 28.16,-20.48 41.813,-48.64 34.987,-69.12 -1.707,-5.973 -0.853,-11.947 4.267,-16.213 8.533,-7.68 25.6,-9.387 38.4,-4.267 11.093,5.12 17.067,14.507 17.067,26.453 0,24.747 -6.827,31.573 -12.8,37.547 -3.413,3.413 -6.827,7.68 -9.387,15.36 -4.267,13.653 0,16.213 6.827,19.627 2.56,1.707 5.12,3.413 6.827,5.12 0.853,0.853 0.853,0.853 1.707,1.707 9.387,8.533 28.16,26.453 6.827,76.8 -13.653,32.427 16.213,58.027 48.64,78.507 114.347,-0.853 208.213,-93.867 208.213,-209.067 0,-9.387 -0.853,-19.627 -1.707,-29.013 0,-2.56 1.707,-4.267 3.413,-5.12 2.56,0 4.267,1.707 5.12,3.413 1.707,10.24 1.707,20.48 1.707,29.867 0.001,121.171 -97.279,218.451 -217.599,218.451 z m 2.56,-44.373 c -6.827,0 -12.8,-2.56 -17.92,-6.827 -3.413,-3.413 -4.267,-8.533 -3.413,-14.507 2.56,-10.24 12.8,-21.333 21.333,-23.04 5.12,-1.707 8.533,0.853 9.387,1.707 8.533,8.533 17.067,25.6 7.68,35.84 v 0 c -4.267,4.267 -10.24,6.827 -17.067,6.827 z m 3.414,-36.693 c -1.707,0 -8.533,3.413 -12.8,11.093 -2.56,4.267 -5.12,10.24 -2.56,12.8 5.973,5.973 17.92,5.973 23.04,0 5.12,-5.12 -0.854,-17.067 -7.68,-23.893 0.853,0 0.853,0 0,0 z m 89.6,-54.614 c -7.68,0 -14.507,-1.707 -17.92,-5.973 -6.827,-6.827 -21.333,-14.507 -35.84,-21.333 -9.387,-4.267 -9.387,-11.947 -7.68,-16.213 3.413,-7.68 14.507,-11.093 25.6,-5.973 4.267,1.707 6.827,0 13.653,-8.533 5.12,-6.827 11.947,-14.507 21.333,-14.507 0.853,0 4.267,-0.853 7.68,-1.707 12.8,-3.413 34.133,-9.387 46.933,3.413 3.413,3.413 5.12,6.827 5.12,11.093 0,6.827 -5.12,11.947 -11.093,17.92 -5.973,5.12 -11.947,11.947 -14.507,19.627 -3.413,11.093 -11.947,17.92 -23.893,21.333 -2.56,0.853 -5.973,0.853 -9.386,0.853 z m -45.227,-42.666 c -4.267,0 -6.827,1.707 -7.68,3.413 -0.853,1.707 1.707,3.413 3.413,5.12 14.507,7.68 29.867,15.36 37.547,23.04 2.56,2.56 10.24,4.267 19.627,2.56 5.12,-0.853 14.507,-5.12 17.92,-15.36 3.413,-10.24 11.093,-17.92 17.067,-23.04 4.267,-4.267 8.533,-8.533 8.533,-11.093 0,-1.707 -0.853,-3.413 -2.56,-5.12 -9.387,-9.387 -26.453,-4.267 -38.4,-0.853 -4.267,1.707 -7.68,2.56 -10.24,2.56 -5.973,0 -10.24,5.12 -14.507,11.093 -5.973,6.827 -12.8,16.213 -23.893,10.24 -2.56,-2.56 -4.267,-2.56 -6.827,-2.56 z m -7.68,-71.68 c -10.24,0 -17.067,-13.653 -23.893,-27.307 -3.413,-6.827 -6.827,-13.653 -11.093,-20.48 -5.12,-7.68 -5.12,-16.213 -0.853,-24.747 8.533,-15.36 30.72,-26.453 40.96,-26.453 5.12,0 10.24,-10.24 10.24,-40.107 0,-0.853 -1.707,-3.413 -3.413,-5.973 -3.413,-5.973 -9.387,-14.507 -7.68,-27.307 -15.36,-3.413 -31.573,-5.12 -47.787,-5.12 -28.16,0 -55.467,5.12 -81.067,16.213 -2.56,0.853 -4.267,0 -5.973,-2.56 -0.853,-2.56 0,-4.267 2.56,-5.973 26.453,-11.093 55.467,-17.067 84.48,-17.067 17.92,0 35.84,2.56 53.76,6.827 2.56,0.853 3.413,2.56 3.413,5.12 -2.56,11.947 1.707,18.773 5.973,24.747 2.56,3.413 4.267,6.827 4.267,10.24 0,32.427 -5.973,48.64 -18.773,48.64 -8.533,0 -27.307,9.387 -34.133,21.333 -3.413,5.973 -2.56,11.093 0.853,16.213 4.267,6.827 8.533,14.507 11.947,20.48 8.533,17.067 13.653,24.747 19.627,22.187 5.973,-3.413 12.8,-16.213 17.92,-27.307 7.68,-14.507 11.947,-24.747 20.48,-24.747 17.92,0.853 25.6,16.213 31.573,29.013 3.413,7.68 6.827,14.507 11.093,17.067 7.68,4.267 46.08,0 74.24,-10.24 -17.92,-60.587 -63.147,-110.933 -122.027,-134.827 -2.56,-0.853 -3.413,-3.413 -2.56,-5.973 0.853,-2.56 3.413,-3.413 5.973,-2.56 62.293,25.6 110.08,79.36 128,144.213 v 0.853 c 0,0.853 0,1.707 -0.853,1.707 0,0.853 -0.853,0.853 -0.853,1.707 l -0.853,0.853 c -27.307,11.947 -72.533,17.92 -84.48,11.947 -6.827,-3.413 -11.093,-11.947 -15.36,-20.48 -5.973,-11.947 -11.093,-23.04 -23.893,-23.893 -2.56,0.853 -8.533,12.8 -12.8,20.48 -6.827,12.8 -13.653,26.453 -22.187,30.72 -2.561,1.707 -4.268,2.561 -6.828,2.561 z M 78.758,239.36 h -0.853 c -2.56,-0.853 -3.413,-2.56 -2.56,-5.12 2.56,-11.947 6.827,-23.04 11.947,-34.133 0.853,-1.707 3.413,-3.413 5.12,-2.56 1.707,0.853 3.413,3.413 2.56,5.12 l -11.093,33.28 c -1.707,1.706 -3.414,3.413 -5.121,3.413 z m 62.294,-42.667 c -16.213,0 -29.013,-7.68 -36.693,-13.653 C 87.292,171.093 2.812,111.36 1.959,111.36 c -1.707,-1.707 -2.56,-4.267 -0.853,-5.973 1.707,-1.707 4.267,-2.56 5.973,-0.853 0.853,0.853 85.333,59.733 102.4,72.533 11.093,8.533 21.333,11.947 31.573,11.947 25.6,0 46.933,-21.333 46.933,-46.933 0,-10.24 -4.267,-20.48 -11.947,-31.573 -12.8,-17.067 -72.533,-102.4 -72.533,-103.253 -1.707,-1.707 -0.853,-4.267 0.853,-5.973 1.706,-1.706 4.267,-0.853 5.973,0.853 0.853,0.853 59.733,85.333 72.533,102.4 9.387,11.947 13.653,23.893 13.653,36.693 0.001,30.719 -24.745,55.465 -55.465,55.465 z m -34.134,-51.2 c -2.56,0 -4.267,-1.707 -4.267,-4.267 0,-21.333 17.067,-38.4 38.4,-38.4 2.56,0 4.267,1.707 4.267,4.267 0,2.56 -1.707,4.267 -4.267,4.267 -16.213,0 -29.867,13.653 -29.867,29.867 0.001,2.56 -1.706,4.266 -4.266,4.266 z m -25.6,-34.133 c -0.853,0 -1.707,0 -2.56,-0.853 l -25.6,-23.04 c -0.853,-0.853 -1.707,-1.707 -1.707,-3.413 0,-0.853 0,-1.707 0.853,-2.56 1.707,-1.707 4.267,-1.707 5.973,0 l 25.6,23.04 c 0.853,0.853 1.707,1.707 1.707,3.413 0,0.853 0,1.707 -0.853,2.56 -0.853,0 -2.559,0.853 -3.413,0.853 z m 25.6,-25.6 c -0.853,0 -2.56,-0.853 -3.413,-1.707 l -23.04,-25.6 c -0.853,-0.853 -0.853,-1.707 -0.853,-2.56 0,-0.853 0.853,-2.56 1.707,-3.413 1.707,-1.707 4.267,-1.707 5.973,0 l 23.04,25.6 c 0.853,0.853 0.853,1.707 0.853,2.56 0,0.853 -0.853,2.56 -1.707,3.413 -0.853,1.707 -1.706,1.707 -2.56,1.707 z m -76.8,-19.627 c -0.853,0 -1.707,0 -2.56,-0.853 L 1.958,42.24 C 1.105,41.387 0.251,40.533 0.251,38.827 c 0,-0.853 0,-1.707 0.853,-2.56 1.707,-1.707 4.267,-1.707 5.973,0 l 25.6,23.04 c 0.853,0.853 1.707,1.707 1.707,3.413 0,0.853 0,1.707 -0.853,2.56 -0.853,0 -2.559,0.853 -3.413,0.853 z m 34.134,-28.16 c -0.853,0 -2.56,-0.853 -3.413,-1.707 L 35.239,7.253 C 34.386,6.4 34.386,5.546 34.386,4.693 c 0,-0.853 0.853,-2.56 1.707,-3.413 1.707,-1.707 4.267,-1.707 5.973,0 l 25.6,29.013 c 0.853,0.853 0.853,1.707 0.853,2.56 0,0.853 -0.853,2.56 -1.707,3.413 -0.854,0.854 -1.707,1.707 -2.56,1.707 z"
         id="path187" /></g></g></svg>
